<?xml version="1.0" encoding="UTF-8"?>
<svg width="334px" height="428px" viewBox="0 0 334 428" version="1.1" xmlns="http://www.w3.org/2000/svg" xmlns:xlink="http://www.w3.org/1999/xlink">
    <!-- Generator: Sketch 42 (36781) - http://www.bohemiancoding.com/sketch -->
    <title>detective</title>
    <desc>Created with Sketch.</desc>
    <defs></defs>
    <g id="Page-1" stroke="none" stroke-width="1" fill="none" fill-rule="evenodd">
        <g id="detective" fill-rule="nonzero">
            <g id="Group" transform="translate(124.000000, 208.000000)" fill="#FCD088">
                <rect id="Rectangle-path" x="0.333" y="0.219" width="85.333" height="85.333"></rect>
                <rect id="Rectangle-path" x="0.333" y="0.219" width="41.231" height="85.333"></rect>
            </g>
            <rect id="Rectangle-path" fill="#DDAB62" x="165.569" y="208.219" width="44.103" height="85.333"></rect>
            <path d="M110.456,267.454 L65.236,276.498 C42.212,281.104 25.64,301.319 25.64,324.798 L25.64,384.607 C66.072,411.674 114.69,427.468 167,427.468 C219.31,427.468 267.928,411.674 308.36,384.607 L308.36,324.798 C308.36,301.318 291.788,281.102 268.764,276.498 L223.544,267.454 L215.552,255.788 C214.056,253.604 211.225,252.781 208.793,253.823 L199.584,257.79 C178.79,266.749 155.219,266.727 134.443,257.731 L125.458,253.84 C123.043,252.787 120.219,253.578 118.704,255.733 L110.456,267.454 Z" id="Shape" fill="#3A3A3A"></path>
            <path d="M268.764,276.5 L223.544,267.456 L215.552,255.79 C214.056,253.606 211.225,252.783 208.793,253.825 L199.584,257.792 C188.735,262.465 177.134,264.67 165.564,264.458 L165.564,427.443 C166.045,427.446 166.519,427.471 167,427.471 C219.31,427.471 267.928,411.677 308.36,384.61 L308.36,324.8 C308.36,301.319 291.787,281.104 268.764,276.5 Z" id="Shape" fill="#282828"></path>
            <path d="M255.629,142.568 C256.074,138.458 256.305,134.407 256.305,130.456 C256.305,78.192 216.321,35.824 167,35.824 C117.679,35.824 77.695,78.192 77.695,130.456 C77.695,134.407 77.928,138.458 78.371,142.568 C69.708,144.819 65.587,158.145 69.167,172.407 C72.758,186.714 82.736,196.538 91.455,194.349 C92.25,194.149 92.991,193.828 93.706,193.451 C109.843,225.843 136.652,252.124 167,252.124 C197.348,252.124 224.156,225.845 240.294,193.451 C241.009,193.829 241.752,194.149 242.545,194.349 C251.263,196.537 261.242,186.714 264.833,172.407 C268.414,158.145 264.292,144.817 255.629,142.568 Z" id="Shape" fill="#FFEDB5"></path>
            <path d="M255.629,142.568 C256.074,138.458 256.305,134.407 256.305,130.456 C256.305,78.192 216.321,35.824 167,35.824 C166.519,35.824 166.043,35.855 165.564,35.862 L165.564,252.085 C166.043,252.099 166.519,252.123 167,252.123 C197.348,252.123 224.156,225.844 240.294,193.45 C241.009,193.828 241.752,194.148 242.545,194.348 C251.263,196.536 261.242,186.713 264.833,172.406 C268.414,158.145 264.292,144.817 255.629,142.568 Z" id="Shape" fill="#E8CF89"></path>
            <path d="M282.415,276.108 L239.638,270.638 L167,407.456 L94.184,270.693 L51.585,276.108 C25.473,280.74 6.677,301.079 6.677,324.701 L6.677,371.565 C50.555,406.863 106.305,428 167,428 C227.695,428 283.445,406.863 327.323,371.568 L327.323,324.704 C327.323,301.081 308.527,280.742 282.415,276.108 Z" id="Shape" fill="#777777"></path>
            <path d="M282.415,276.108 L239.638,270.638 L167,407.456 L165.564,404.76 L165.564,427.984 C166.043,427.986 166.521,428 167,428 C227.695,428 283.445,406.863 327.323,371.568 L327.323,324.704 C327.323,301.081 308.527,280.742 282.415,276.108 Z" id="Shape" fill="#666666"></path>
            <path d="M78.403,142.568 C91.736,149.112 92.613,174.834 92.613,174.834 C92.613,174.834 108.054,121.834 102.212,102.639 C96.37,83.444 111.949,82.126 111.949,82.126 C131.503,88.561 150.177,90.716 166.426,90.739 L166.426,28.784 C74.74,29.231 65.098,136.036 78.403,142.568 Z" id="Shape" fill="#3A3A3A"></path>
            <path d="M167,28.773 C166.805,28.773 166.619,28.783 166.426,28.783 L166.426,90.738 C199.191,90.785 222.051,82.125 222.051,82.125 C222.051,82.125 237.63,83.44 231.788,102.638 C225.946,121.835 241.387,174.833 241.387,174.833 C241.387,174.833 242.263,149.112 255.597,142.567 C268.931,136.022 259.227,28.773 167,28.773 Z" id="Shape" fill="#333333"></path>
            <path d="M209.672,234.352 C209.672,234.352 181.703,318.96 160.134,427.907 C162.416,427.967 164.704,428 167,428 C175.47,428 183.841,427.578 192.1,426.774 L253.914,332.323 L234.808,300.719 L271.872,283.48 C271.872,283.48 242.493,237.724 209.672,234.352 Z" id="Shape" fill="#383838"></path>
            <path d="M124.328,234.352 C91.507,237.724 62.129,283.48 62.129,283.48 L99.193,300.719 L80.085,332.323 L141.899,426.774 C150.158,427.577 158.528,428 166.999,428 C169.295,428 171.583,427.967 173.865,427.907 C152.295,318.96 124.328,234.352 124.328,234.352 Z" id="Shape" fill="#4F4F4F"></path>
            <path d="M74.771,102.301 C74.771,102.301 92.846,-29.323 167,6.828 C241.154,-29.322 259.229,102.301 259.229,102.301" id="Shape" fill="#777777"></path>
            <path d="M167,6.827 C166.516,6.591 166.043,6.391 165.564,6.17 L165.564,102.3 L259.229,102.3 C259.229,102.301 241.154,-29.323 167,6.827 Z" id="Shape" fill="#666666"></path>
            <path d="M167,79.483 C74.807,79.483 0.069,99.551 0.069,124.305 C0.069,139.101 26.774,152.22 67.941,160.383 C68.408,151.3 72.246,144.159 78.371,142.568 C77.926,138.458 77.695,134.407 77.695,130.456 C77.695,128.153 77.8,125.879 77.952,123.617 C97.43,111.195 130.04,103.044 167,103.044 C203.96,103.044 236.57,111.193 256.048,123.617 C256.2,125.879 256.305,128.153 256.305,130.456 C256.305,134.407 256.072,138.458 255.629,142.568 C261.754,144.161 265.593,151.3 266.059,160.383 C307.226,152.22 333.931,139.101 333.931,124.305 C333.931,99.551 259.193,79.483 167,79.483 Z" id="Shape" fill="#4F4F4F"></path>
            <path d="M167,79.483 C166.519,79.483 166.043,79.486 165.564,79.488 L165.564,103.062 C166.045,103.059 166.517,103.043 167,103.043 C203.961,103.043 236.57,111.192 256.048,123.616 C256.2,125.878 256.305,128.152 256.305,130.455 C256.305,134.406 256.072,138.457 255.629,142.567 C261.754,144.16 265.593,151.299 266.059,160.382 C307.226,152.219 333.931,139.1 333.931,124.304 C333.931,99.551 259.193,79.483 167,79.483 Z" id="Shape" fill="#383838"></path>
        </g>
    </g>
</svg>